<svg xmlns="http://www.w3.org/2000/svg" width="32" height="32" viewBox="0 0 32 32">
	<path d="M168.448 104.575a2.148 4.446 0 0 1-2.148 4.445 2.148 4.446 0 0 1-2.149-4.445 2.148 4.446 0 0 1 2.149-4.446 2.148 4.446 0 0 1 2.148 4.446" transform="matrix(1.05575 .27872 -.28152 1.04527 -117.998 -144.535)" fill="currentColor" stroke="currentColor" stroke-width="2.30885" stroke-linecap="round" stroke-linejoin="round"/>
	<path d="M15.11 185.034a2.914 5.027 0 0 1-2.915 5.027 2.914 5.027 0 0 1-2.914-5.027 2.914 5.027 0 0 1 2.914-5.027 2.914 5.027 0 0 1 2.914 5.027" transform="matrix(.89428 -.62156 .6278 .8854 -117.998 -144.535)" fill="currentColor" stroke="currentColor" stroke-width="2.63252" stroke-linecap="round" stroke-linejoin="round"/>
	<path d="M115.153 151.38a2.914 5.027 0 0 1-2.914 5.027 2.914 5.027 0 0 1-2.914-5.027 2.914 5.027 0 0 1 2.914-5.028 2.914 5.027 0 0 1 2.914 5.027" transform="matrix(1.08836 -.09559 .09655 1.07756 -117.998 -144.535)" fill="currentColor" stroke="currentColor" stroke-width="2.63252" stroke-linecap="round" stroke-linejoin="round"/>
	<path d="M6.82 189.986a2.507 4.325 0 0 1-2.507 4.325 2.507 4.325 0 0 1-2.507-4.325 2.507 4.325 0 0 1 2.507-4.325 2.507 4.325 0 0 1 2.507 4.325" transform="matrix(.89428 -.62156 .6278 .8854 -117.998 -144.535)" fill="currentColor" stroke="currentColor" stroke-width="2.26484" stroke-linecap="round" stroke-linejoin="round"/>
	<path d="M636.43 289.918c-3.042-.765-5.726-2.858-7.21-5.622-.968-1.805-1.432-3.86-1.476-5.908-.043-2.048.325-4.092.943-6.045a24 24 0 0 1 3.53-6.952l4.284-3.294c3.793-2.4 8.654-3.036 12.938-1.695s7.913 4.636 9.661 8.77c1.03 2.438 1.416 5.23.596 7.746-.41 1.258-1.118 2.426-2.09 3.323s-2.21 1.516-3.522 1.692a6.03 6.03 0 0 1-3.548-.617l-6.498 3.11a10.46 10.46 0 0 1-3.033 3.565 10.46 10.46 0 0 1-4.575 1.927" transform="matrix(.42448 .03626 -.03662 .42027 -243.567 -114.836)" fill="currentColor" stroke="currentColor" stroke-width="8" stroke-linecap="round" stroke-linejoin="round" stroke-dasharray="none" stroke-opacity="1"/>
</svg>